<svg width="13" height="14" viewBox="0 0 13 14" fill="none" xmlns="http://www.w3.org/2000/svg">
<path d="M10.1856 14H6.39585C5.77097 14 5.15767 13.7374 4.72372 13.2822L0.5 8.84118L1.69769 7.77324C2.05641 7.45227 2.58293 7.38808 3.0053 7.61567L4.39971 8.36265V2.7895C4.39971 1.98416 5.04773 1.33055 5.84619 1.33055C5.94455 1.33055 6.04291 1.34223 6.14127 1.35973C6.19335 0.601084 6.81823 0 7.58197 0C8.07956 0 8.5135 0.250938 8.77387 0.636098C8.94166 0.566069 9.12681 0.531055 9.31774 0.531055C10.1162 0.531055 10.7642 1.18466 10.7642 1.99V2.1534C10.8568 2.13589 10.9552 2.12422 11.0535 2.12422C11.852 2.12422 12.5 2.77782 12.5 3.58316V11.6657C12.5 12.9554 11.4643 14 10.1856 14ZM2.16635 8.91121L5.55689 12.471C5.77676 12.6986 6.07763 12.8328 6.39007 12.8328H10.1856C10.8221 12.8328 11.3428 12.3076 11.3428 11.6657V3.58316C11.3428 3.41976 11.2155 3.29137 11.0535 3.29137C10.8915 3.29137 10.7642 3.41976 10.7642 3.58316V6.99708H9.60704V1.99C9.60704 1.82659 9.47975 1.69821 9.31774 1.69821C9.15574 1.69821 9.02845 1.82659 9.02845 1.99V6.99708H7.87126V1.45894C7.87126 1.29554 7.74397 1.16715 7.58197 1.16715C7.41996 1.16715 7.29267 1.29554 7.29267 1.45894V6.99708H6.13549V2.7895C6.13549 2.62609 6.0082 2.49771 5.84619 2.49771C5.68419 2.49771 5.55689 2.63193 5.55689 2.7895V10.3001L2.46143 8.6486L2.16635 8.91121Z"/>
</svg>
