<svg width="17" height="17" viewBox="0 0 17 17" fill="none" xmlns="http://www.w3.org/2000/svg">
  <path d="M0.604004 16.396L2.146 11.208C1.92334 10.722 1.74634 10.2117 1.615 9.67699C1.483 9.14233 1.417 8.58333 1.417 7.99999C1.417 6.94466 1.61467 5.95866 2.01 5.04199C2.406 4.12533 2.94767 3.32299 3.635 2.63499C4.323 1.94766 5.12867 1.40599 6.052 1.00999C6.976 0.614659 7.95867 0.416992 9 0.416992C10.0553 0.416992 11.0413 0.614659 11.958 1.00999C12.8747 1.40599 13.677 1.94766 14.365 2.63499C15.0523 3.32299 15.594 4.12866 15.99 5.05199C16.3853 5.97599 16.583 6.95866 16.583 7.99999C16.583 9.04133 16.3853 10.024 15.99 10.948C15.594 11.8713 15.0523 12.677 14.365 13.365C13.677 14.0523 12.8747 14.594 11.958 14.99C11.0413 15.3853 10.0553 15.583 9 15.583C8.41667 15.583 7.85767 15.517 7.323 15.385C6.78834 15.2537 6.278 15.0767 5.792 14.854L0.604004 16.396ZM2.229 14.771L5.854 13.708C5.868 13.708 5.868 13.7047 5.854 13.698C5.84 13.6913 5.84 13.6947 5.854 13.708C6.00667 13.7773 6.361 13.9267 6.917 14.156C7.47234 14.3853 8.16667 14.5 9 14.5C10.8053 14.5 12.34 13.868 13.604 12.604C14.868 11.34 15.5 9.80533 15.5 7.99999C15.5 6.19466 14.868 4.65999 13.604 3.39599C12.34 2.13199 10.8053 1.49999 9 1.49999C7.19467 1.49999 5.66 2.13199 4.396 3.39599C3.132 4.65999 2.5 6.19466 2.5 7.99999C2.5 8.83333 2.611 9.52433 2.833 10.073C3.05567 10.6217 3.20867 10.9793 3.292 11.146L2.229 14.771ZM8.458 10.792H9.542V8.54199H11.792V7.45799H9.542V5.20799H8.458V7.45799H6.208V8.54199H8.458V10.792Z" fill="currentColor" />
</svg>