<svg width="22" height="22" viewBox="0 0 22 22" fill="none" xmlns="http://www.w3.org/2000/svg">
  <path d="M11 21.5C9.05001 21.5 7.27935 21.0167 5.68801 20.05C4.09601 19.0833
  2.85001 17.7917 1.95001
  16.175V19.15H0.450012V13.65H5.95001V15.15H3.10001C3.83335 16.6167 4.90835
  17.7917 6.32501 18.675C7.74168 19.5583 9.30001 20 11 20C12.2167 20 13.3627
  19.775 14.438 19.325C15.5127 18.875 16.4543 18.2583 17.263 17.475C18.071
  16.6917 18.7167 15.7667 19.2 14.7C19.6833 13.6333 19.95 12.4833 20
  11.25H21.5C21.4667 12.6667 21.1667 13.996 20.6 15.238C20.0333 16.4793 19.279
  17.5667 18.337 18.5C17.3957 19.4333 16.296 20.1667 15.038 20.7C13.7793 21.2333
  12.4333 21.5 11 21.5ZM0.500012 10.75C0.550012 9.3 0.858345 7.95 1.42501
  6.7C1.99168 5.45 2.75435 4.36233 3.71301 3.437C4.67101 2.51233 5.77501 1.79167
  7.02501 1.275C8.27501 0.758333 9.60001 0.5 11 0.5C12.9333 0.5 14.704 0.983333
  16.312 1.95C17.9207 2.91667 19.1667 4.225 20.05
  5.875V2.85H21.55V8.35H16.05V6.85H18.9C18.1833 5.41667 17.1167 4.25 15.7
  3.35C14.2833 2.45 12.7167 2 11 2C9.80001 2 8.66668 2.225 7.60001 2.675C6.53335
  3.125 5.59168 3.73733 4.77501 4.512C3.95835 5.28733 3.30401 6.20833 2.81201
  7.275C2.32068 8.34167 2.05001 9.5 2.00001 10.75H0.500012ZM10.3
  17.8H11.65V16.6C12.4333 16.5 13.1377 16.2083 13.763 15.725C14.3877 15.2417
  14.7 14.5167 14.7 13.55C14.7 12.85 14.496 12.2293 14.088 11.688C13.6793 11.146
  12.875 10.6583 11.675 10.225C10.625 9.875 9.92501 9.56667 9.57501 9.3C9.22501
  9.03333 9.05001 8.66667 9.05001 8.2C9.05001 7.73333 9.22935 7.35 9.58801
  7.05C9.94601 6.75 10.4333 6.6 11.05 6.6C11.5667 6.6 11.9873 6.725 12.312
  6.975C12.6373 7.225 12.8833 7.53333 13.05 7.9L14.275 7.4C14.075 6.86667
  13.7377 6.41233 13.263 6.037C12.7877 5.66233 12.2667 5.45 11.7
  5.4V4.2H10.35V5.4C9.50001 5.56667 8.84601 5.91233 8.38801 6.437C7.92935
  6.96233 7.70001 7.55 7.70001 8.2C7.70001 8.95 7.92501 9.554 8.37501
  10.012C8.82501 10.4707 9.56668 10.8833 10.6 11.25C11.6667 11.65 12.3917 12.004
  12.775 12.312C13.1583 12.6207 13.35 13.0333 13.35 13.55C13.35 14.1833 13.125
  14.6417 12.675 14.925C12.225 15.2083 11.7167 15.35 11.15 15.35C10.5833 15.35
  10.0793 15.1793 9.63801 14.838C9.19601 14.496 8.85835 14 8.62501 13.35L7.35001
  13.875C7.61668 14.6083 7.99168 15.1957 8.47501 15.637C8.95835 16.079 9.56668
  16.3833 10.3 16.55V17.8Z" fill="currentColor" />
</svg>