<svg width="12" height="16" viewBox="0 0 12 16" fill="none" xmlns="http://www.w3.org/2000/svg">
<path d="M1.74999 15.583C1.37533 15.583 1.05933 15.4547 0.801992 15.198C0.545326 14.9407 0.416992 14.6247 0.416992 14.25V1.74999C0.416992 1.37533 0.545326 1.05933 0.801992 0.801992C1.05933 0.545326 1.37533 0.416992 1.74999 0.416992H10.25C10.6247 0.416992 10.9407 0.545326 11.198 0.801992C11.4547 1.05933 11.583 1.37533 11.583 1.74999V14.25C11.583 14.6247 11.4547 14.9407 11.198 15.198C10.9407 15.4547 10.6247 15.583 10.25 15.583H1.74999ZM1.74999 14.5H10.25C10.3053 14.5 10.361 14.4723 10.417 14.417C10.4723 14.361 10.5 14.3053 10.5 14.25V1.74999C10.5 1.69466 10.4723 1.63899 10.417 1.58299C10.361 1.52766 10.3053 1.49999 10.25 1.49999H8.99999V7.62499L7.20799 6.74999L5.41699 7.62499V1.49999H1.74999C1.69466 1.49999 1.63899 1.52766 1.58299 1.58299C1.52766 1.63899 1.49999 1.69466 1.49999 1.74999V14.25C1.49999 14.3053 1.52766 14.361 1.58299 14.417C1.63899 14.4723 1.69466 14.5 1.74999 14.5Z"/>
</svg>
