<svg width="24" height="24" viewBox="0 0 24 24" fill="none" xmlns="http://www.w3.org/2000/svg">
<path fill-rule="evenodd" clip-rule="evenodd" d="M9.45989 9.00005L11.9995 11.1769L14.5391 9.00005L11.9995 6.82322L9.45989 9.00005ZM12.4063 5.52551L15.9063 8.52551L19.4063 11.5255V12.4746L15.9063 15.4746L12.4063 18.4746H11.5928L8.09277 15.4746L4.59277 12.4746V11.5255L8.09277 8.52551L11.5928 5.52551H12.4063ZM8.49952 14.1769L11.0391 12L8.49952 9.82322L5.95989 12L8.49952 14.1769ZM12.9599 12L15.4995 14.1769L18.0391 12L15.4995 9.82322L12.9599 12ZM9.45989 15L11.9995 17.1769L14.5391 15L11.9995 12.8232L9.45989 15Z" fill="#191D20"/> 
</svg>
