<svg width="20" height="19" viewBox="0 0 20 19" fill="none" xmlns="http://www.w3.org/2000/svg">
  <path d="M17.8 18.95L6.35 7.5C6.25 7.73333 6.16667 7.97067 6.1 8.212C6.03334 8.454 6 8.71667 6 9C6 9.55 6.104 10.0667 6.312 10.55C6.52067 11.0333 6.80834 11.4583 7.175 11.825L6.1 12.9C5.61667 12.3833 5.22934 11.7957 4.938 11.137C4.646 10.479 4.5 9.76667 4.5 9C4.5 8.5 4.56267 8.029 4.688 7.587C4.81267 7.14567 4.98334 6.73333 5.2 6.35L3.4 4.525C2.96667 5.175 2.625 5.875 2.375 6.625C2.125 7.375 2 8.16667 2 9C2 10.1167 2.20834 11.1583 2.625 12.125C3.04167 13.0917 3.61667 13.9333 4.35 14.65L3.275 15.725C2.425 14.8417 1.75 13.8293 1.25 12.688C0.750003 11.546 0.500003 10.3167 0.500003 9C0.500003 7.95 0.658336 6.95833 0.975003 6.025C1.29167 5.09167 1.74167 4.23333 2.325 3.45L0.0500031 1.2L1.125 0.125L18.875 17.875L17.8 18.95ZM17.975 14.15L16.9 13.05C17.25 12.45 17.5207 11.8123 17.712 11.137C17.904 10.4623 18 9.75 18 9C18 7.88333 17.7917 6.84167 17.375 5.875C16.9583 4.90833 16.3833 4.06667 15.65 3.35L16.725 2.275C17.575 3.14167 18.25 4.15 18.75 5.3C19.25 6.45 19.5 7.68333 19.5 9C19.5 9.95 19.3667 10.8583 19.1 11.725C18.8333 12.5917 18.4583 13.4 17.975 14.15ZM15.05 11.2L13.875 10.025C13.9083 9.85833 13.9377 9.69167 13.963 9.525C13.9877 9.35833 14 9.18333 14 9C14 8.45 13.896 7.93333 13.688 7.45C13.4793 6.96667 13.1917 6.54167 12.825 6.175L13.9 5.1C14.3833 5.6 14.7707 6.18333 15.062 6.85C15.354 7.51667 15.5 8.23333 15.5 9C15.5 9.4 15.4583 9.78333 15.375 10.15C15.2917 10.5167 15.1833 10.8667 15.05 11.2Z" fill="currentColor" />
</svg>