<svg width="7" height="13" viewBox="0 0 7 13" fill="none" xmlns="http://www.w3.org/2000/svg">
  <path
    d="M3.86671 6.01276C2.35338 5.61943 1.86671 5.21276 1.86671 4.57943C1.86671 3.85276 2.54005 3.34609 3.66671 3.34609C4.85338 3.34609 5.29338 3.91276 5.33338 4.74609H6.80671C6.76005 3.59943 6.06005 2.54609 4.66671 2.20609V0.746094H2.66671V2.18609C1.37338 2.46609 0.333379 3.30609 0.333379 4.59276C0.333379 6.13276 1.60671 6.89943 3.46671 7.34609C5.13338 7.74609 5.46671 8.33276 5.46671 8.95276C5.46671 9.41276 5.14005 10.1461 3.66671 10.1461C2.29338 10.1461 1.75338 9.53276 1.68005 8.74609H0.213379C0.293379 10.2061 1.38671 11.0261 2.66671 11.2994V12.7461H4.66671V11.3128C5.96671 11.0661 7.00005 10.3128 7.00005 8.94609C7.00005 7.05276 5.38005 6.40609 3.86671 6.01276Z"
    fill="#191D20" />
</svg>
