<svg width="16" height="16" viewBox="0 0 16 16" fill="none" xmlns="http://www.w3.org/2000/svg">
  <path fill-rule="evenodd" clip-rule="evenodd" d="M2.625 8C2.625 5.03147 5.03147 2.625 8 2.625C10.9685 2.625 13.375 5.03147 13.375 8C13.375 10.9685 10.9685 13.375 8 13.375C5.03147 13.375 2.625 10.9685 2.625 8ZM8 1.375C4.34111 1.375 1.375 4.34111 1.375 8C1.375 11.6589 4.34111 14.625 8 14.625C11.6589 14.625 14.625 11.6589 14.625 8C14.625 4.34111 11.6589 1.375 8 1.375ZM10.9933 6.38371L11.3771 5.89037L10.3904 5.12294L10.0067 5.61629L6.94132 9.55743L5.44194 8.05806L5 7.61612L4.11612 8.5L4.55806 8.94194L6.55806 10.9419L7.49334 10.8837L10.9933 6.38371Z" fill="currentColor" />
</svg>