<svg fill="none" height="12" viewBox="0 0 12 12" width="12" xmlns="http://www.w3.org/2000/svg">
  <path clipRule="evenodd" d="M9.73544 0.256742L9.61286 0.869605L9.16238 3.12203L11.25 3.12203H11.875V4.37203H11.25H8.91238L8.36238 7.12203H10.75H11.375V8.37203H10.75H8.11238L7.61286 10.8696L7.49029 11.4825L6.26456 11.2373L6.38714 10.6245L6.83762 8.37203H4.11238L3.61286 10.8696L3.49029 11.4825L2.26456 11.2373L2.38714 10.6245L2.83762 8.37203H0.75H0.125V7.12203H0.75H3.08762L3.63762 4.37203H1.25H0.625L0.625 3.12203H1.25L3.88762 3.12203L4.38714 0.62446L4.50971 0.0115967L5.73544 0.256742L5.61286 0.869605L5.16238 3.12203L7.88762 3.12203L8.38714 0.62446L8.50971 0.0115967L9.73544 0.256742ZM4.91238 4.37203L4.36238 7.12203H7.08762L7.63762 4.37203H4.91238Z" fill="currentColor" fillOpacity="0.9" fillRule="evenodd" />
</svg>