<svg width="18" height="18" viewBox="0 0 18 18" fill="none" xmlns="http://www.w3.org/2000/svg">
  <path d="M2.3 17.5C1.8 17.5 1.375 17.325 1.025 16.975C0.675 16.625 0.5 16.2 0.5 15.7V2.3C0.5 1.8 0.675 1.375 1.025 1.025C1.375 0.675 1.8 0.5 2.3 0.5H15.7C16.2 0.5 16.625 0.675 16.975 1.025C17.325 1.375 17.5 1.8 17.5 2.3V15.7C17.5 16.2 17.325 16.625 16.975 16.975C16.625 17.325 16.2 17.5 15.7 17.5H2.3ZM2.3 16H15.7C15.7833 16 15.8543 15.971 15.913 15.913C15.971 15.8543 16 15.7833 16 15.7V12.8H12.7C12.2667 13.4333 11.7293 13.925 11.088 14.275C10.446 14.625 9.75 14.8 9 14.8C8.25 14.8 7.55433 14.625 6.913 14.275C6.271 13.925 5.73333 13.4333 5.3 12.8H2V15.7C2 15.7833 2.02933 15.8543 2.088 15.913C2.146 15.971 2.21667 16 2.3 16ZM9 13.3C9.63333 13.3 10.2083 13.1167 10.725 12.75C11.2417 12.3833 11.6 11.9 11.8 11.3H16V2.3C16 2.21667 15.971 2.146 15.913 2.088C15.8543 2.02933 15.7833 2 15.7 2H2.3C2.21667 2 2.146 2.02933 2.088 2.088C2.02933 2.146 2 2.21667 2 2.3V11.3H6.2C6.4 11.9 6.75833 12.3833 7.275 12.75C7.79167 13.1167 8.36667 13.3 9 13.3ZM2.3 16H2H16H15.7H2.3Z" fill="currentColor" />
</svg>