<svg width="16" height="16" viewBox="0 0 16 16" fill="none" xmlns="http://www.w3.org/2000/svg">
  <path d="M7.37504 11.9584H8.62504V7.16671H7.37504V11.9584ZM8.00004
  5.75004C8.19448 5.75004 8.35421 5.68393 8.47921 5.55171C8.60421 5.42004
  8.66671 5.25699 8.66671 5.06254C8.66671 4.88199 8.60421 4.7256 8.47921
  4.59337C8.35421 4.46171 8.19448 4.39587 8.00004 4.39587C7.8056 4.39587 7.64587
  4.46171 7.52087 4.59337C7.39587 4.7256 7.33337 4.88199 7.33337 5.06254C7.33337
  5.25699 7.39587 5.42004 7.52087 5.55171C7.64587 5.68393 7.8056 5.75004 8.00004
  5.75004ZM8.00004 15.9167C6.90282 15.9167 5.87171 15.7084 4.90671
  15.2917C3.94115 14.875 3.10421 14.3125 2.39587 13.6042C1.68754 12.8959 1.12504
  12.0589 0.708374 11.0934C0.291707 10.1284 0.083374 9.09726 0.083374
  8.00004C0.083374 6.90282 0.291707 5.87143 0.708374 4.90587C1.12504 3.94087
  1.68754 3.10421 2.39587 2.39587C3.10421 1.68754 3.94115 1.12504 4.90671
  0.708374C5.87171 0.291707 6.90282 0.083374 8.00004 0.083374C9.09726 0.083374
  10.1287 0.291707 11.0942 0.708374C12.0592 1.12504 12.8959 1.68754 13.6042
  2.39587C14.3125 3.10421 14.875 3.94087 15.2917 4.90587C15.7084 5.87143 15.9167
  6.90282 15.9167 8.00004C15.9167 9.09726 15.7084 10.1284 15.2917 11.0934C14.875
  12.0589 14.3125 12.8959 13.6042 13.6042C12.8959 14.3125 12.0592 14.875 11.0942
  15.2917C10.1287 15.7084 9.09726 15.9167 8.00004 15.9167ZM8.00004
  14.6667C9.84726 14.6667 11.4203 14.0175 12.7192 12.7192C14.0175 11.4203
  14.6667 9.84726 14.6667 8.00004C14.6667 6.15282 14.0175 4.57976 12.7192
  3.28087C11.4203 1.98254 9.84726 1.33337 8.00004 1.33337C6.15282 1.33337
  4.58004 1.98254 3.28171 3.28087C1.98282 4.57976 1.33337 6.15282 1.33337
  8.00004C1.33337 9.84726 1.98282 11.4203 3.28171 12.7192C4.58004 14.0175
  6.15282 14.6667 8.00004 14.6667Z" fill="currentColor" />
</svg>
  