<svg width="20" height="10" viewBox="0 0 20 10" fill="none" xmlns="http://www.w3.org/2000/svg">
  <path d="M8.8 9.54995H5C3.75 9.54995 2.67933 9.10429 1.788 8.21295C0.896
  7.32095 0.45 6.24995 0.45 4.99995C0.45 3.74995 0.896 2.67895 1.788
  1.78695C2.67933 0.895618 3.75 0.449951 5 0.449951H8.8V1.94995H5C4.16667
  1.94995 3.45 2.24995 2.85 2.84995C2.25 3.44995 1.95 4.16662 1.95 4.99995C1.95
  5.83328 2.25 6.54995 2.85 7.14995C3.45 7.74995 4.16667 8.04995 5
  8.04995H8.8V9.54995ZM6.25 5.74995V4.24995H13.75V5.74995H6.25ZM11.2
  9.54995V8.04995H15C15.8333 8.04995 16.55 7.74995 17.15 7.14995C17.75 6.54995
  18.05 5.83328 18.05 4.99995C18.05 4.16662 17.75 3.44995 17.15 2.84995C16.55
  2.24995 15.8333 1.94995 15 1.94995H11.2V0.449951H15C16.25 0.449951 17.3207
  0.895618 18.212 1.78695C19.104 2.67895 19.55 3.74995 19.55 4.99995C19.55
  6.24995 19.104 7.32095 18.212 8.21295C17.3207 9.10429 16.25 9.54995 15
  9.54995H11.2Z" fill="currentColor" />
</svg>