<svg width="16" height="12" viewBox="0 0 16 12" fill="currentColor" xmlns="http://www.w3.org/2000/svg">
  <path d="M8.66666 3.33332C8.66666 1.85999 7.47333 0.666656 6 0.666656C4.52666 0.666656 3.33333 1.85999 3.33333 3.33332C3.33333 4.80666 4.52666 5.99999 6 5.99999C7.47333 5.99999 8.66666 4.80666 8.66666 3.33332ZM7.33333 3.33332C7.33333 4.06666 6.73333 4.66666 6 4.66666C5.26666 4.66666 4.66666 4.06666 4.66666 3.33332C4.66666 2.59999 5.26666 1.99999 6 1.99999C6.73333 1.99999 7.33333 2.59999 7.33333 3.33332ZM0.666664 9.99999V11.3333H11.3333V9.99999C11.3333 8.22666 7.78 7.33332 6 7.33332C4.22 7.33332 0.666664 8.22666 0.666664 9.99999ZM2 9.99999C2.13333 9.52666 4.2 8.66666 6 8.66666C7.79333 8.66666 9.85333 9.51999 10 9.99999H2Z" />
  <path fill-rule="evenodd" clip-rule="evenodd" d="M15.5 3.38025L12.042 7.42587L9.61611 4.99999L10.5 4.11611L11.958 5.57411L14.5397 2.58002L15.5 3.38025Z" />
</svg>