<svg width="55" height="59" viewBox="0 0 55 59" fill="none" xmlns="http://www.w3.org/2000/svg">
  <path d="M4.66634 58.75C3.38856 58.75 2.30523 58.3056 1.41634 57.4167C0.527453 56.5278 0.0830078 55.4444 0.0830078 54.1667V42.8333L9.41634 32.5833L11.2497 34.5L2.49967 44.0833H52.4997L43.9163 34.5L45.833 32.6667L54.9163 42.8333V54.1667C54.9163 55.4444 54.4719 56.5278 53.583 57.4167C52.6941 58.3056 51.6108 58.75 50.333 58.75H4.66634ZM24.4997 34.4167L13.7497 23.5833C12.8608 22.6389 12.4441 21.5556 12.4997 20.3333C12.5552 19.1111 13.0552 18.0278 13.9997 17.0833L29.1663 1.83333C30.1108 0.944445 31.1941 0.5 32.4163 0.5C33.6386 0.5 34.7219 0.944445 35.6663 1.83333L46.4163 12.5833C47.3052 13.5278 47.7497 14.5972 47.7497 15.7917C47.7497 16.9861 47.2497 18.0833 46.2497 19.0833L30.9997 34.3333C30.1108 35.2778 29.0413 35.75 27.7913 35.75C26.5413 35.75 25.4441 35.3056 24.4997 34.4167ZM44.083 17.1667C44.4719 16.8333 44.6663 16.3611 44.6663 15.75C44.6663 15.1389 44.4719 14.6389 44.083 14.25L33.9163 4C33.583 3.66667 33.0969 3.5 32.458 3.5C31.8191 3.5 31.333 3.66667 30.9997 4L15.9163 19C15.583 19.3889 15.4163 19.8889 15.4163 20.5C15.4163 21.1111 15.583 21.6111 15.9163 22L26.1663 32.25C26.5552 32.6389 27.0552 32.8333 27.6663 32.8333C28.2775 32.8333 28.7497 32.6389 29.083 32.25L44.083 17.1667Z" fill="currentColor" />
</svg>