<svg width="20" height="24" viewBox="0 0 20 24" fill="none" xmlns="http://www.w3.org/2000/svg">
  <path d="M9.875 23.225H16.05C17 23.225 17.821 22.8833 18.513 22.2C19.2043 21.5166 19.55 20.6916 19.55 19.725V6.44995C19.55 5.84995 19.354 5.34995 18.962 4.94995C18.5707 4.54995 18.0833 4.34995 17.5 4.34995C17.3333 4.34995 17.175 4.38328 17.025 4.44995C16.875 4.51662 16.7667 4.62495 16.7 4.77495V3.69995C16.7 3.11662 16.5043 2.62062 16.113 2.21195C15.721 1.80395 15.2333 1.59995 14.65 1.59995C14.4 1.59995 14.196 1.63728 14.038 1.71195C13.8793 1.78728 13.7333 1.89162 13.6 2.02495C13.45 1.62495 13.225 1.30395 12.925 1.06195C12.625 0.820618 12.25 0.699951 11.8 0.699951C11.2833 0.699951 10.8083 0.866618 10.375 1.19995C9.94167 1.53328 9.725 2.03328 9.725 2.69995V3.34995C9.64167 3.24995 9.54167 3.16662 9.425 3.09995C9.30833 3.03328 9.15 2.99995 8.95 2.99995C8.36667 2.99995 7.88333 3.19995 7.5 3.59995C7.11667 3.99995 6.925 4.49995 6.925 5.09995V15.1L3.65 13.4C3.33333 13.25 3.02933 13.1956 2.738 13.237C2.446 13.279 2.16667 13.4166 1.9 13.65L0.25 15.1L7.1 22.125C7.43333 22.475 7.85433 22.746 8.363 22.938C8.871 23.1293 9.375 23.225 9.875 23.225ZM9.875 21.725C9.59167 21.725 9.28333 21.6706 8.95 21.562C8.61667 21.454 8.35833 21.3083 8.175 21.125L2.425 15.2L2.95 14.725L8.425 17.5499V5.09995C8.425 4.91662 8.47067 4.77062 8.562 4.66195C8.654 4.55395 8.78333 4.49995 8.95 4.49995C9.13333 4.49995 9.271 4.55395 9.363 4.66195C9.45433 4.77062 9.5 4.91662 9.5 5.09995V12H11.275V2.79995C11.275 2.61662 11.3167 2.47062 11.4 2.36195C11.4833 2.25395 11.6167 2.19995 11.8 2.19995C11.9833 2.19995 12.121 2.25395 12.213 2.36195C12.3043 2.47062 12.35 2.61662 12.35 2.79995V12H14.125V3.69995C14.125 3.51662 14.1667 3.37062 14.25 3.26195C14.3333 3.15395 14.4667 3.09995 14.65 3.09995C14.8333 3.09995 14.9707 3.15395 15.062 3.26195C15.154 3.37062 15.2 3.51662 15.2 3.69995V12H16.95V6.44995C16.95 6.26662 16.9957 6.12062 17.087 6.01195C17.179 5.90395 17.3167 5.84995 17.5 5.84995C17.6833 5.84995 17.821 5.90395 17.913 6.01195C18.0043 6.12062 18.05 6.26662 18.05 6.44995V19.725C18.05 20.275 17.854 20.746 17.462 21.138C17.0707 21.5293 16.6 21.725 16.05 21.725H9.875Z" fill="currentColor" />
</svg>