<svg width="16" height="16" viewBox="0 0 16 16" fill="none" xmlns="http://www.w3.org/2000/svg">
<path fill-rule="evenodd" clip-rule="evenodd" d="M2.625 8C2.625 5.03147 5.03147 2.625 8 2.625C10.9685 2.625 13.375 5.03147 13.375 8C13.375 10.9685 10.9685 13.375 8 13.375C5.03147 13.375 2.625 10.9685 2.625 8ZM8 1.375C4.34111 1.375 1.375 4.34111 1.375 8C1.375 11.6589 4.34111 14.625 8 14.625C11.6589 14.625 14.625 11.6589 14.625 8C14.625 4.34111 11.6589 1.375 8 1.375ZM8 4.75C9.79493 4.75 11.25 6.20507 11.25 8C11.25 9.79493 9.79493 11.25 8 11.25C6.20507 11.25 4.75 9.79493 4.75 8C4.75 6.20507 6.20507 4.75 8 4.75ZM10 8C10 6.89543 9.10457 6 8 6C6.89543 6 6 6.89543 6 8C6 9.10457 6.89543 10 8 10C9.10457 10 10 9.10457 10 8Z" fill="#191D20" fill-opacity="0.9"/>
</svg>
