<svg width="16" height="16" viewBox="0 0 16 16" fill="none" xmlns="http://www.w3.org/2000/svg">
  <path fill-rule="evenodd" clip-rule="evenodd" d="M2.625 8C2.625 5.03147 5.03147 2.625 8 2.625C10.9685 2.625 13.375 5.03147 13.375 8C13.375 10.9685 10.9685 13.375 8 13.375C5.03147 13.375 2.625 10.9685 2.625 8ZM8 1.375C4.34111 1.375 1.375 4.34111 1.375 8C1.375 11.6589 4.34111 14.625 8 14.625C11.6589 14.625 14.625 11.6589 14.625 8C14.625 4.34111 11.6589 1.375 8 1.375ZM8 11.75L7.97584 11.7499L7.22585 11.7452L7.23536 10.2452L7.98534 10.25L8 10.25L8.01466 10.25L8.76464 10.2452L8.77415 11.7452L8.02416 11.7499L8 11.75ZM10.6345 10.6686L10.1008 11.1956L9.04698 10.1281L9.58069 9.60122L9.60122 9.58069L10.1281 9.04698L11.1956 10.1008L10.6686 10.6345C10.6574 10.646 10.646 10.6574 10.6345 10.6686ZM6.41931 9.60122L6.95302 10.1281L5.89917 11.1956L5.36545 10.6686C5.35401 10.6574 5.34265 10.646 5.33135 10.6345L4.80443 10.1008L5.87185 9.04698L6.39878 9.58069L6.41931 9.60122ZM5.75005 8.01466L5.7548 8.76464L4.25483 8.77415L4.25008 8.02416L4.25 8L4.25008 7.97584L4.25483 7.22585L5.7548 7.23536L5.75005 7.98534L5.75 8L5.75005 8.01466ZM11.7499 8.02416L11.7452 8.77415L10.2452 8.76464L10.25 8.01466L10.25 8L10.25 7.98534L10.2452 7.23536L11.7452 7.22585L11.7499 7.97584L11.75 8L11.7499 8.02416ZM10.6686 5.36545L11.1956 5.89917L10.1281 6.95302L9.60122 6.41931L9.58069 6.39878L9.04698 5.87185L10.1008 4.80443L10.6345 5.33135C10.646 5.34265 10.6574 5.35401 10.6686 5.36545ZM6.39878 6.41931L5.87185 6.95302L4.80443 5.89917L5.33135 5.36545C5.34265 5.35401 5.35402 5.34265 5.36545 5.33135L5.89917 4.80443L6.95302 5.87185L6.41931 6.39878L6.39878 6.41931ZM7.98534 5.75005L7.23536 5.7548L7.22585 4.25483L7.97584 4.25008L8 4.25L8.02416 4.25008L8.77415 4.25483L8.76464 5.7548L8.01466 5.75005L8 5.75L7.98534 5.75005Z" fill="currentColor" fill-opacity="0.9" />
</svg>