<svg width="22" height="16" viewBox="0 0 22 16" fill="none" xmlns="http://www.w3.org/2000/svg">
  <path d="M12.75 8.7C12.05 8.7 11.4583 8.45833 10.975 7.975C10.4917 7.49167 10.25 6.9 10.25 6.2C10.25 5.51667 10.4917 4.92933 10.975 4.438C11.4583 3.946 12.05 3.7 12.75 3.7C13.45 3.7 14.0417 3.946 14.525 4.438C15.0083 4.92933 15.25 5.51667 15.25 6.2C15.25 6.9 15.0083 7.49167 14.525 7.975C14.0417 8.45833 13.45 8.7 12.75 8.7ZM6.15 11.8C5.65 11.8 5.225 11.625 4.875 11.275C4.525 10.925 4.35 10.5 4.35 10V2.425C4.35 1.925 4.525 1.5 4.875 1.15C5.225 0.8 5.65 0.625 6.15 0.625H19.35C19.85 0.625 20.275 0.8 20.625 1.15C20.975 1.5 21.15 1.925 21.15 2.425V10C21.15 10.5 20.975 10.925 20.625 11.275C20.275 11.625 19.85 11.8 19.35 11.8H6.15ZM7.65 10.3H17.85C17.85 9.8 18.025 9.375 18.375 9.025C18.725 8.675 19.15 8.5 19.65 8.5V3.925C19.15 3.925 18.725 3.74567 18.375 3.387C18.025 3.029 17.85 2.60833 17.85 2.125H7.65C7.65 2.625 7.475 3.05 7.125 3.4C6.775 3.75 6.35 3.925 5.85 3.925V8.5C6.35 8.5 6.775 8.675 7.125 9.025C7.475 9.375 7.65 9.8 7.65 10.3ZM18.175 15.3H2.65C2.15 15.3 1.725 15.125 1.375 14.775C1.025 14.425 0.849998 14 0.849998 13.5V3.6H2.35V13.5C2.35 13.5833 2.38333 13.654 2.45 13.712C2.51667 13.7707 2.58333 13.8 2.65 13.8H18.175V15.3ZM6.15 10.3H5.85C5.85 10.3 5.85 10.2707 5.85 10.212C5.85 10.154 5.85 10.0833 5.85 10V2.425C5.85 2.34167 5.85 2.271 5.85 2.213C5.85 2.15433 5.85 2.125 5.85 2.125H6.15C6.06667 2.125 5.996 2.15433 5.938 2.213C5.87933 2.271 5.85 2.34167 5.85 2.425V10C5.85 10.0833 5.87933 10.154 5.938 10.212C5.996 10.2707 6.06667 10.3 6.15 10.3Z" fill="currentColor" />
</svg>