<svg width="16" height="16" viewBox="0 0 16 16" fill="none" xmlns="http://www.w3.org/2000/svg">
  <path fill-rule="evenodd" clip-rule="evenodd" d="M5.46038 4.99993L8.00001 7.17675L10.5396 4.99993L8.00001 2.8231L5.46038 4.99993ZM8.40675 1.52539L11.9068 4.52539L15.4068 7.52539V8.47446L11.9068 11.4745L8.40675 14.4745H7.59326L4.09326 11.4745L0.593262 8.47446V7.52539L4.09326 4.52539L7.59326 1.52539H8.40675ZM4.50001 10.1768L7.03964 7.99993L4.50001 5.8231L1.96038 7.99993L4.50001 10.1768ZM8.96038 7.99993L11.5 10.1768L14.0396 7.99993L11.5 5.8231L8.96038 7.99993ZM5.46038 10.9999L8.00001 13.1768L10.5396 10.9999L8.00001 8.8231L5.46038 10.9999Z" fill="currentColor" />
</svg>