<svg width="16" height="16" viewBox="0 0 16 16" fill="none" xmlns="http://www.w3.org/2000/svg">
  <path fill-rule="evenodd" clip-rule="evenodd" d="M8 2.625C5.03147 2.625 2.625 5.03147 2.625 8C2.625 10.9685 5.03147 13.375 8 13.375C10.9685 13.375 13.375 10.9685 13.375 8C13.375 5.03147 10.9685 2.625 8 2.625ZM1.375 8C1.375 4.34111 4.34111 1.375 8 1.375C11.6589 1.375 14.625 4.34111 14.625 8C14.625 11.6589 11.6589 14.625 8 14.625C4.34111 14.625 1.375 11.6589 1.375 8ZM10.8839 6L10.4419 6.44194L8.88388 8L10.4419 9.55806L10.8839 10L10 10.8839L9.55806 10.4419L8 8.88388L6.44194 10.4419L6 10.8839L5.11612 10L5.55806 9.55806L7.11612 8L5.55806 6.44194L5.11612 6L6 5.11612L6.44194 5.55806L8 7.11612L9.55806 5.55806L10 5.11612L10.8839 6Z" fill="currentColor" fill-opacity="0.9" />
</svg>