<svg width="20" height="14" viewBox="0 0 20 14" fill="none" xmlns="http://www.w3.org/2000/svg">
  <path d="M3.275 13.725C2.425 12.8417 1.75 11.8294 1.25 10.688C0.75 9.54602 0.5
  8.31669 0.5 7.00002C0.5 5.68336 0.75 4.45002 1.25 3.30002C1.75 2.15002 2.425
  1.14169 3.275 0.275024L4.35 1.35002C3.61667 2.08336 3.04167 2.93336 2.625
  3.90002C2.20833 4.86669 2 5.90002 2 7.00002C2 8.11669 2.20833 9.15836 2.625
  10.125C3.04167 11.0917 3.61667 11.9334 4.35 12.65L3.275 13.725ZM6.1
  10.9C5.61667 10.3834 5.22933 9.79569 4.938 9.13702C4.646 8.47902 4.5 7.76669
  4.5 7.00002C4.5 6.23336 4.646 5.51669 4.938 4.85002C5.22933 4.18336 5.61667
  3.60002 6.1 3.10002L7.175 4.17502C6.80833 4.54169 6.52067 4.96669 6.312
  5.45002C6.104 5.93336 6 6.45002 6 7.00002C6 7.55002 6.104 8.06669 6.312
  8.55002C6.52067 9.03336 6.80833 9.45836 7.175 9.82502L6.1 10.9ZM10
  8.50002C9.58333 8.50002 9.22933 8.35402 8.938 8.06202C8.646 7.77069 8.5
  7.41669 8.5 7.00002C8.5 6.58336 8.646 6.22936 8.938 5.93802C9.22933 5.64602
  9.58333 5.50002 10 5.50002C10.4167 5.50002 10.7707 5.64602 11.062
  5.93802C11.354 6.22936 11.5 6.58336 11.5 7.00002C11.5 7.41669 11.354 7.77069
  11.062 8.06202C10.7707 8.35402 10.4167 8.50002 10 8.50002ZM13.9 10.9L12.825
  9.82502C13.1917 9.45836 13.4793 9.03336 13.688 8.55002C13.896 8.06669 14
  7.55002 14 7.00002C14 6.45002 13.896 5.93336 13.688 5.45002C13.4793 4.96669
  13.1917 4.54169 12.825 4.17502L13.9 3.10002C14.3833 3.60002 14.7707 4.18336
  15.062 4.85002C15.354 5.51669 15.5 6.23336 15.5 7.00002C15.5 7.76669 15.354
  8.47902 15.062 9.13702C14.7707 9.79569 14.3833 10.3834 13.9 10.9ZM16.725
  13.725L15.65 12.65C16.3833 11.9167 16.9583 11.0667 17.375 10.1C17.7917 9.13336
  18 8.10002 18 7.00002C18 5.88336 17.7917 4.84169 17.375 3.87502C16.9583
  2.90836 16.3833 2.06669 15.65 1.35002L16.725 0.275024C17.575 1.14169 18.25
  2.15002 18.75 3.30002C19.25 4.45002 19.5 5.68336 19.5 7.00002C19.5 8.31669
  19.25 9.54602 18.75 10.688C18.25 11.8294 17.575 12.8417 16.725 13.725Z" fill="currentColor" />
</svg>