<svg width="22" height="22" viewBox="0 0 22 22" fill="none" xmlns="http://www.w3.org/2000/svg">
  <path d="M11 14C11.8333 14 12.5417 13.7083 13.125 13.125C13.7083 12.5417 14 11.8333 14 11C14 10.1667 13.7083 9.45833 13.125 8.875C12.5417 8.29167 11.8333 8 11 8C10.1667 8 9.45833 8.29167 8.875 8.875C8.29167 9.45833 8 10.1667 8 11C8 11.8333 8.29167 12.5417 8.875 13.125C9.45833 13.7083 10.1667 14 11 14ZM11 15.5C9.75 15.5 8.68733 15.0627 7.812 14.188C6.93733 13.3127 6.5 12.25 6.5 11C6.5 9.75 6.93733 8.68733 7.812 7.812C8.68733 6.93733 9.75 6.5 11 6.5C12.25 6.5 13.3127 6.93733 14.188 7.812C15.0627 8.68733 15.5 9.75 15.5 11C15.5 12.25 15.0627 13.3127 14.188 14.188C13.3127 15.0627 12.25 15.5 11 15.5ZM1 11.75C0.783333 11.75 0.604 11.679 0.462 11.537C0.320667 11.3957 0.25 11.2167 0.25 11C0.25 10.7833 0.320667 10.604 0.462 10.462C0.604 10.3207 0.783333 10.25 1 10.25H3.25C3.46667 10.25 3.64567 10.3207 3.787 10.462C3.929 10.604 4 10.7833 4 11C4 11.2167 3.929 11.3957 3.787 11.537C3.64567 11.679 3.46667 11.75 3.25 11.75H1ZM18.75 11.75C18.5333 11.75 18.354 11.679 18.212 11.537C18.0707 11.3957 18 11.2167 18 11C18 10.7833 18.0707 10.604 18.212 10.462C18.354 10.3207 18.5333 10.25 18.75 10.25H21C21.2167 10.25 21.396 10.3207 21.538 10.462C21.6793 10.604 21.75 10.7833 21.75 11C21.75 11.2167 21.6793 11.3957 21.538 11.537C21.396 11.679 21.2167 11.75 21 11.75H18.75ZM11 4C10.7833 4 10.6043 3.929 10.463 3.787C10.321 3.64567 10.25 3.46667 10.25 3.25V1C10.25 0.783333 10.321 0.604 10.463 0.462C10.6043 0.320667 10.7833 0.25 11 0.25C11.2167 0.25 11.396 0.320667 11.538 0.462C11.6793 0.604 11.75 0.783333 11.75 1V3.25C11.75 3.46667 11.6793 3.64567 11.538 3.787C11.396 3.929 11.2167 4 11 4ZM11 21.75C10.7833 21.75 10.6043 21.6793 10.463 21.538C10.321 21.396 10.25 21.2167 10.25 21V18.75C10.25 18.5333 10.321 18.354 10.463 18.212C10.6043 18.0707 10.7833 18 11 18C11.2167 18 11.396 18.0707 11.538 18.212C11.6793 18.354 11.75 18.5333 11.75 18.75V21C11.75 21.2167 11.6793 21.396 11.538 21.538C11.396 21.6793 11.2167 21.75 11 21.75ZM5 6.05L3.75 4.825C3.6 4.675 3.529 4.49567 3.537 4.287C3.54567 4.079 3.61667 3.9 3.75 3.75C3.9 3.6 4.07933 3.525 4.288 3.525C4.496 3.525 4.675 3.6 4.825 3.75L6.05 5C6.2 5.15 6.275 5.325 6.275 5.525C6.275 5.725 6.2 5.9 6.05 6.05C5.91667 6.2 5.75 6.27067 5.55 6.262C5.35 6.254 5.16667 6.18333 5 6.05ZM17.175 18.25L15.95 17C15.8 16.85 15.725 16.675 15.725 16.475C15.725 16.275 15.8 16.1 15.95 15.95C16.0833 15.8 16.25 15.7293 16.45 15.738C16.65 15.746 16.8333 15.8167 17 15.95L18.25 17.175C18.4 17.325 18.471 17.504 18.463 17.712C18.4543 17.9207 18.3833 18.1 18.25 18.25C18.1 18.4 17.921 18.475 17.713 18.475C17.5043 18.475 17.325 18.4 17.175 18.25ZM15.95 6.05C15.8 5.91667 15.7293 5.75 15.738 5.55C15.746 5.35 15.8167 5.16667 15.95 5L17.175 3.75C17.325 3.6 17.5043 3.529 17.713 3.537C17.921 3.54567 18.1 3.61667 18.25 3.75C18.4 3.9 18.475 4.079 18.475 4.287C18.475 4.49567 18.4 4.675 18.25 4.825L17 6.05C16.85 6.2 16.675 6.275 16.475 6.275C16.275 6.275 16.1 6.2 15.95 6.05ZM3.75 18.25C3.6 18.1 3.525 17.9207 3.525 17.712C3.525 17.504 3.6 17.325 3.75 17.175L5 15.95C5.15 15.8 5.325 15.725 5.525 15.725C5.725 15.725 5.9 15.8 6.05 15.95C6.2 16.0833 6.271 16.25 6.263 16.45C6.25433 16.65 6.18333 16.8333 6.05 17L4.825 18.25C4.675 18.4 4.496 18.475 4.288 18.475C4.07933 18.475 3.9 18.4 3.75 18.25Z" fill="currentColor" />
</svg>