<svg width="24" height="24" viewBox="0 0 24 24" fill="none" xmlns="http://www.w3.org/2000/svg">
<path fill-rule="evenodd" clip-rule="evenodd" d="M12 24C18.6274 24 24 18.6274 24 12C24 5.37258 18.6274 0 12 0C5.37258 0 0 5.37258 0 12C0 18.6274 5.37258 24 12 24ZM20.9999 7.5389C20.9999 7.53889 21 7.53888 21 7.53887H20.9999C20.9999 7.53888 20.9999 7.53889 20.9999 7.5389ZM18.9969 8.05564C19.7023 7.9763 20.3745 7.79995 20.9999 7.5389C20.5323 8.19707 19.9411 8.77501 19.2597 9.23762C19.2664 9.37847 19.2698 9.51996 19.2698 9.66225C19.2698 13.9992 15.7616 19 9.34642 19C7.3768 19 5.54352 18.4567 4 17.5254C4.27285 17.5558 4.55046 17.5713 4.83198 17.5713C6.46611 17.5713 7.96993 17.0467 9.16359 16.1664C7.63733 16.14 6.34932 15.1911 5.90545 13.8873C6.11846 13.9256 6.33691 13.9462 6.56165 13.9462C6.87972 13.9462 7.18785 13.9061 7.4805 13.8311C5.88496 13.5294 4.68272 12.2031 4.68272 10.613C4.68272 10.5992 4.68272 10.5854 4.68312 10.5717C5.15334 10.8175 5.69113 10.9652 6.26284 10.9822C5.32699 10.3937 4.71125 9.38919 4.71125 8.25056C4.71125 7.64909 4.88329 7.08537 5.18351 6.60067C6.90375 8.58624 9.47364 9.89284 12.3723 10.0297C12.3128 9.78951 12.282 9.539 12.282 9.28177C12.282 7.46936 13.8437 6 15.7698 6C16.7729 6 17.6794 6.39847 18.3155 7.03634C19.11 6.88917 19.8564 6.61611 20.5304 6.23995C20.27 7.00634 19.7169 7.64948 18.9969 8.05564Z" fill="#191D20"/> 
</svg>
