<svg width="12" height="14" viewBox="0 0 12 14" fill="currentColor" xmlns="http://www.w3.org/2000/svg">
  <path d="M10 7.66669H9.54667L8.21333 9.00003H9.48667L10.6667 10.3334H1.33333L2.52 9.00003H3.88667L2.55333 7.66669H2L0 9.66669V12.3334C0 13.0667 0.593333 13.6667 1.32667 13.6667H10.6667C11.4 13.6667 12 13.0734 12 12.3334V9.66669L10 7.66669ZM9.33333 4.30003L6.03333 7.60003L3.67333 5.24003L6.97333 1.94003L9.33333 4.30003ZM6.50667 0.526694L2.26 4.77336C2 5.03336 2 5.45336 2.26 5.71336L5.56 9.01336C5.82 9.27336 6.24 9.27336 6.5 9.01336L10.74 4.77336C11 4.51336 11 4.09336 10.74 3.83336L7.44 0.533361C7.18667 0.266694 6.76667 0.266694 6.50667 0.526694Z" />
</svg>