<svg width="1050" height="1050" viewBox="0 0 1050 1050" fill="none" xmlns="http://www.w3.org/2000/svg">
<path fill-rule="evenodd" clip-rule="evenodd" d="M525 49.1266C262.217 49.1266 49.1266 262.126 49.1266 525C49.1266 787.874 262.217 1000.87 525 1000.87C787.783 1000.87 1000.87 787.874 1000.87 525C1000.87 262.22 787.78 49.1266 525 49.1266ZM0.873383 525C0.873383 235.471 235.573 0.873413 525 0.873413C814.43 0.873413 1049.13 235.57 1049.13 525C1049.13 814.529 814.427 1049.13 525 1049.13C235.573 1049.13 0.873383 814.529 0.873383 525Z" fill="#FF7B7C"/>
<path fill-rule="evenodd" clip-rule="evenodd" d="M731.91 400.121L599.696 394.62L689.543 297.341L653.354 261.248L555.979 350.806L550.671 218.592H499.619L494.118 350.806L396.839 260.958L360.746 297.148L450.4 394.523L318.09 399.735V450.883L450.304 456.384L360.456 553.662L396.646 589.756L492.477 501.549L496.724 715.793L420.194 721.391V768.968L497.882 774.855L499.329 849.262H550.381L551.925 774.952L630.385 768.968V721.391L553.083 715.793L557.426 501.645L653.16 589.949L689.254 553.855L599.696 456.48L731.91 451.173V400.121Z" fill="#FF7B7C"/>
</svg>
