<?xml version="1.0" standalone="no"?>
<!DOCTYPE svg PUBLIC "-//W3C//DTD SVG 20010904//EN"
 "http://www.w3.org/TR/2001/REC-SVG-20010904/DTD/svg10.dtd">
<svg version="1.0" xmlns="http://www.w3.org/2000/svg"
 width="512.000000pt" height="512.000000pt" viewBox="0 0 512.000000 512.000000"
 preserveAspectRatio="xMidYMid meet">
<metadata>
Created by potrace 1.14, written by Peter Selinger 2001-2017
</metadata>
<g transform="translate(0.000000,512.000000) scale(0.100000,-0.100000)"
fill="#000000" stroke="none">
<path d="M2389 4606 c-2 -3 -33 -7 -69 -11 -36 -3 -95 -13 -133 -21 -37 -7
-71 -13 -75 -12 -4 0 -14 -2 -22 -5 -8 -3 -51 -16 -95 -28 -84 -22 -166 -50
-225 -76 -79 -35 -165 -78 -168 -85 -2 -5 -12 -8 -23 -8 -10 0 -19 -4 -19 -10
0 -5 -4 -10 -10 -10 -13 0 -114 -62 -118 -72 -2 -4 -8 -8 -14 -8 -8 0 -61 -36
-95 -65 -6 -5 -26 -21 -44 -35 -104 -80 -232 -209 -332 -335 -63 -80 -58 -73
-94 -130 -18 -27 -36 -55 -40 -60 -46 -61 -188 -368 -207 -450 -2 -5 -10 -35
-19 -65 -9 -30 -19 -69 -22 -87 -3 -18 -10 -44 -15 -58 -5 -14 -9 -29 -8 -33
1 -4 -2 -29 -6 -57 -4 -27 -9 -57 -10 -65 -1 -8 -4 -19 -7 -25 -8 -13 -4 -428
5 -480 3 -22 9 -56 11 -75 11 -70 16 -96 25 -125 5 -16 11 -43 13 -60 5 -35
70 -234 93 -285 39 -85 116 -234 139 -268 14 -20 25 -42 25 -49 0 -7 4 -13 8
-13 5 0 14 -10 21 -22 47 -92 228 -296 360 -408 29 -25 67 -57 85 -72 17 -15
34 -28 38 -28 4 0 13 -6 20 -13 29 -28 186 -122 296 -177 113 -57 369 -150
412 -150 12 0 29 -4 38 -9 10 -5 37 -11 62 -14 25 -3 52 -8 60 -11 33 -12 134
-18 320 -19 230 -2 268 3 530 59 36 7 218 69 265 90 22 10 43 17 48 16 4 -1 7
3 7 8 0 6 6 10 14 10 7 0 46 18 86 40 40 22 75 40 77 40 8 0 201 129 217 145
8 8 17 15 19 15 8 0 66 50 160 140 73 69 154 160 245 275 17 22 92 134 92 138
0 3 17 34 38 68 32 54 59 111 123 254 26 60 82 260 104 370 3 17 8 41 10 55
19 94 26 394 12 530 -17 172 -51 320 -117 505 -23 64 -122 271 -166 345 -26
45 -104 161 -114 170 -3 3 -33 39 -67 80 -108 133 -341 345 -430 391 -15 8
-36 21 -45 29 -9 8 -38 26 -65 40 -26 14 -68 37 -93 51 -97 55 -359 153 -460
173 -14 3 -50 10 -80 16 -30 6 -71 13 -90 16 -43 6 -75 12 -75 14 0 4 -402 9
-406 6z"/>
</g>
</svg>
