<?xml version="1.0" standalone="no"?>
<!DOCTYPE svg PUBLIC "-//W3C//DTD SVG 20010904//EN"
 "http://www.w3.org/TR/2001/REC-SVG-20010904/DTD/svg10.dtd">
<svg version="1.0" xmlns="http://www.w3.org/2000/svg"
 width="512.000000pt" height="512.000000pt" viewBox="0 0 512.000000 512.000000"
 preserveAspectRatio="xMidYMid meet">
<metadata>
Created by potrace 1.14, written by Peter Selinger 2001-2017
</metadata>
<g transform="translate(0.000000,512.000000) scale(0.100000,-0.100000)"
fill="#000000" stroke="none">
<path d="M2459 4186 c-2 -3 -33 -7 -69 -10 -36 -2 -66 -5 -67 -6 -2 -2 -12 -4
-23 -5 -11 -1 -23 -4 -27 -5 -5 -1 -11 -2 -15 -1 -13 1 -164 -39 -238 -65 -79
-27 -263 -114 -268 -126 -2 -5 -8 -8 -14 -8 -14 0 -175 -112 -223 -155 -88
-79 -112 -103 -165 -162 -68 -75 -87 -99 -112 -140 -11 -18 -24 -33 -29 -33
-5 0 -9 -4 -9 -10 0 -5 -15 -33 -33 -62 -94 -149 -193 -414 -213 -571 -3 -23
-9 -67 -14 -97 -8 -56 -6 -324 3 -370 3 -14 8 -43 11 -65 13 -94 51 -244 73
-287 7 -16 11 -28 7 -28 -4 0 -2 -6 3 -12 5 -7 20 -40 33 -73 13 -33 30 -68
38 -77 8 -10 12 -18 8 -18 -4 0 1 -12 11 -28 31 -46 43 -66 50 -82 3 -8 33
-51 66 -95 32 -43 61 -85 64 -92 3 -7 9 -10 14 -7 5 3 9 -1 9 -8 0 -19 176
-187 250 -239 19 -13 43 -32 54 -41 11 -10 28 -20 38 -24 10 -3 18 -10 18 -16
0 -6 3 -8 7 -5 3 4 13 1 22 -7 35 -31 321 -165 321 -151 0 3 8 1 18 -4 21 -11
146 -45 202 -55 19 -3 46 -8 60 -11 95 -21 386 -20 490 0 14 3 41 8 60 11 59
11 64 12 110 24 52 13 60 15 80 23 8 4 49 18 90 33 242 85 508 277 685 494 20
25 42 53 50 62 7 9 19 27 26 40 6 13 15 25 19 28 9 6 41 60 71 120 13 25 25
47 29 50 12 10 58 128 53 134 -4 3 -1 6 5 6 7 0 12 8 12 18 0 10 3 22 7 26 4
3 8 12 9 19 1 7 9 34 18 60 9 27 17 60 18 73 1 13 6 24 11 24 4 0 6 3 4 8 -3
4 1 36 9 72 24 118 30 248 20 410 -7 96 -10 121 -21 175 -4 17 -9 41 -11 55
-9 49 -11 56 -28 112 -9 32 -17 61 -18 65 -5 33 -129 294 -150 317 -9 10 -22
31 -28 47 -7 16 -16 29 -21 29 -5 0 -9 7 -9 15 0 8 -4 15 -10 15 -5 0 -10 6
-10 14 0 8 -3 16 -7 18 -5 2 -28 28 -53 58 -61 75 -186 197 -257 251 -32 24
-59 47 -61 52 -2 4 -9 7 -16 7 -7 0 -26 11 -42 25 -52 45 -404 209 -404 188 0
-3 -7 0 -15 7 -8 7 -15 10 -15 6 0 -3 -12 -1 -27 5 -16 6 -39 12 -53 14 -14 2
-36 7 -50 10 -14 3 -37 8 -53 10 -15 3 -42 7 -60 10 -41 7 -312 16 -318 11z"/>
</g>
</svg>
