<svg width="24" height="23" viewBox="0 0 24 23" fill="none" xmlns="http://www.w3.org/2000/svg">
<path fill-rule="evenodd" clip-rule="evenodd" d="M12 0C5.37 0 0 5.27642 0 11.7909C0 17.0083 3.435 21.4152 8.205 22.9775C8.805 23.0806 9.03 22.7269 9.03 22.4174C9.03 22.1374 9.015 21.2088 9.015 20.2214C6 20.7667 5.22 19.4992 4.98 18.8359C4.845 18.4969 4.26 17.4505 3.75 17.1705C3.33 16.9494 2.73 16.4041 3.735 16.3893C4.68 16.3746 5.355 17.2442 5.58 17.5979C6.66 19.3813 8.385 18.8801 9.075 18.5706C9.18 17.8042 9.495 17.2884 9.84 16.9936C7.17 16.6988 4.38 15.6819 4.38 11.1719C4.38 9.8896 4.845 8.82842 5.61 8.00306C5.49 7.70829 5.07 6.49972 5.73 4.87848C5.73 4.87848 6.735 4.56897 9.03 6.08704C9.99 5.82175 11.01 5.6891 12.03 5.6891C13.05 5.6891 14.07 5.82175 15.03 6.08704C17.325 4.55423 18.33 4.87848 18.33 4.87848C18.99 6.49972 18.57 7.70829 18.45 8.00306C19.215 8.82842 19.68 9.87486 19.68 11.1719C19.68 15.6966 16.875 16.6988 14.205 16.9936C14.64 17.3621 15.015 18.0695 15.015 19.1749C15.015 20.7519 15 22.0195 15 22.4174C15 22.7269 15.225 23.0954 15.825 22.9775C20.565 21.4152 24 16.9936 24 11.7909C24 5.27642 18.63 0 12 0Z" fill="#191D20" fill-opacity="0.7"/>
</svg>
