<svg width="20" height="20" viewBox="0 0 20 20" fill="none" xmlns="http://www.w3.org/2000/svg">
<path fill-rule="evenodd" clip-rule="evenodd" d="M10 20C15.5228 20 20 15.5228 20 10C20 4.47715 15.5228 0 10 0C4.47715 0 0 4.47715 0 10C0 15.5228 4.47715 20 10 20ZM12.1449 4.30091C13.2169 4.48602 14.2421 4.80922 15.1981 5.24789C15.2064 5.25147 15.2135 5.25742 15.2176 5.26575C16.9116 7.75731 17.7482 10.5679 17.4354 13.8035C17.4342 13.8172 17.4271 13.8297 17.4159 13.838C16.1329 14.7802 14.8901 15.3522 13.6644 15.7314C13.6449 15.7373 13.6236 15.7302 13.6118 15.7135C13.3286 15.3195 13.0714 14.904 12.8462 14.4677C12.8331 14.4421 12.845 14.4112 12.8716 14.4011C13.2801 14.2469 13.6686 14.0624 14.0422 13.844C14.0718 13.8267 14.0736 13.7844 14.0464 13.7642C13.9672 13.7053 13.8885 13.6434 13.8134 13.5815C13.7992 13.5702 13.7803 13.5678 13.7643 13.5755C11.3385 14.6963 8.6808 14.6963 6.22596 13.5755C6.20999 13.5684 6.19106 13.5707 6.17747 13.582C6.10239 13.6439 6.02373 13.7053 5.9451 13.7642C5.91791 13.7844 5.92027 13.8267 5.94983 13.844C6.3235 14.0582 6.71196 14.2469 7.11992 14.4017C7.14651 14.4118 7.15894 14.4421 7.14592 14.4677C6.9254 14.9046 6.6682 15.3201 6.37968 15.7141C6.36725 15.7302 6.34657 15.7373 6.32705 15.7314C5.10732 15.3522 3.86451 14.7802 2.5815 13.838C2.57086 13.8297 2.56317 13.8166 2.56199 13.8029C2.30066 11.0042 2.83337 8.17038 4.77799 5.26516C4.7827 5.25742 4.7898 5.25147 4.79808 5.24789C5.75473 4.80863 6.77994 4.48543 7.85128 4.30091C7.8708 4.29794 7.8903 4.30686 7.90036 4.32412C8.0328 4.55863 8.18415 4.85923 8.28645 5.10504C9.41574 4.93243 10.5628 4.93243 11.7157 5.10504C11.818 4.86457 11.964 4.55863 12.0959 4.32412C12.1059 4.30627 12.1254 4.29734 12.1449 4.30091ZM6.16446 10.5869C6.16446 11.4202 6.77344 12.0988 7.51251 12.0988C8.26338 12.0988 8.86055 11.4202 8.86055 10.5869C8.87238 9.7596 8.2693 9.07511 7.51251 9.07511C6.76163 9.07511 6.16446 9.75364 6.16446 10.5869ZM11.1487 10.5869C11.1487 11.4202 11.7577 12.0988 12.4967 12.0988C13.2535 12.0988 13.8448 11.4202 13.8448 10.5869C13.8566 9.7596 13.2535 9.07511 12.4967 9.07511C11.7458 9.07511 11.1487 9.75364 11.1487 10.5869Z" fill="#F3F6F8" fill-opacity="0.5"/>
</svg>
